# Blender v2.79 (sub 0) OBJ File: ''
# www.blender.org
v 0.520110 -0.313413 -0.061490
v 0.532702 -0.303514 -0.081534
v 0.553684 -0.291640 -0.031410
v 0.566265 -0.281742 -0.051453
v -0.039864 0.544855 0.134787
v -0.013052 0.581019 0.130010
v -0.122553 0.566300 0.018394
v -0.063600 0.645815 0.007891
v 0.028991 0.595036 0.126770
v 0.028843 0.676634 0.000768
v 0.070207 0.581552 0.126305
v 0.119465 0.646987 -0.000257
v 0.094852 0.545718 0.128791
v 0.173652 0.568197 0.005210
v 0.093512 0.501221 0.133280
v 0.170705 0.470361 0.015081
v 0.066699 0.465057 0.138057
v 0.111752 0.390847 0.025584
v 0.024655 0.451041 0.141296
v 0.019309 0.360027 0.032707
v -0.016560 0.464524 0.141762
v -0.071313 0.389674 0.033731
v -0.041204 0.500358 0.139276
v -0.125500 0.468464 0.028264
v 0.013252 0.299381 -0.152420
v -0.107711 0.338954 -0.151054
v -0.180040 0.444123 -0.158352
v -0.176108 0.574716 -0.171526
v -0.097416 0.680853 -0.185545
v 0.025977 0.721991 -0.195054
v 0.146940 0.682418 -0.196421
v 0.219270 0.577249 -0.189124
v 0.215337 0.446656 -0.175949
v 0.136645 0.340519 -0.161930
v 0.028189 0.525377 0.192322
v 0.146940 0.682418 -0.196421
v 0.219270 0.577249 -0.189124
v 0.025977 0.721991 -0.195054
v -0.176108 0.574716 -0.171526
v 0.136645 0.340519 -0.161930
v -0.107711 0.338954 -0.151054
v 0.013252 0.299381 -0.152420
v -0.097416 0.680853 -0.185545
v -0.180040 0.444123 -0.158352
v 0.182682 0.476317 -0.063499
v 0.045251 0.338911 -0.056478
v 0.559977 -0.256029 -0.012521
v 0.487868 -0.316549 -0.082919
v 0.520110 -0.313413 -0.061490
v 0.553684 -0.291640 -0.031410
v -0.138078 0.553838 -0.057146
v -0.001240 0.690232 -0.089416
v -0.515624 1.285756 -0.118835
v -0.447226 1.339919 -0.206815
v -0.478389 1.338631 -0.182165
v -0.510390 1.319552 -0.145139
v -0.781797 -0.070338 -0.013361
v -0.801489 -0.039111 -0.049327
v -0.747307 -0.074009 0.008205
v -0.803040 -0.007879 -0.075516
v -0.151100 0.482507 -0.086906
v -0.021047 0.348611 -0.066589
v -0.021792 0.350573 -0.042010
v -0.151846 0.484450 -0.062322
v -0.756868 -0.060433 0.025775
v -0.812600 0.005706 -0.057952
v -0.811053 -0.025523 -0.031754
v -0.791360 -0.056760 0.004213
v 0.553684 -0.291640 -0.031410
v 0.566265 -0.281742 -0.051453
v 0.559977 -0.256029 -0.012521
v 0.572557 -0.246135 -0.032560
v 0.183113 0.476709 -0.088299
v 0.182682 0.476317 -0.063499
v 0.572557 -0.246135 -0.032560
v 0.559977 -0.256029 -0.012521
v 0.045663 0.339303 -0.081281
v 0.045251 0.338911 -0.056478
v 0.183113 0.476709 -0.088299
v 0.182682 0.476317 -0.063499
v 0.500456 -0.306654 -0.102955
v 0.487868 -0.316549 -0.082919
v 0.045663 0.339303 -0.081281
v 0.045251 0.338911 -0.056478
v 0.566265 -0.281742 -0.051453
v 0.532702 -0.303514 -0.081534
v 0.572557 -0.246135 -0.032560
v 0.500456 -0.306654 -0.102955
v 0.045663 0.339303 -0.081281
v 0.183113 0.476709 -0.088299
v 0.842348 1.062854 -0.231154
v 0.852775 1.050742 -0.211901
v 0.842820 1.029771 -0.251030
v 0.853242 1.017664 -0.231783
v 0.824228 1.096772 -0.200015
v 0.834654 1.084672 -0.180762
v 0.842348 1.062854 -0.231154
v 0.852775 1.050742 -0.211901
v 0.834654 1.084672 -0.180762
v 0.824228 1.096772 -0.200015
v 0.801220 1.090159 -0.157131
v 0.790797 1.102257 -0.176381
v 0.064496 0.679569 -0.103292
v 0.066395 0.679583 -0.078635
v 0.790797 1.102257 -0.176381
v 0.801220 1.090159 -0.157131
v 0.193957 0.544659 -0.108232
v 0.195857 0.544693 -0.083572
v 0.064496 0.679569 -0.103292
v 0.066395 0.679583 -0.078635
v 0.842820 1.029771 -0.251030
v 0.853242 1.017664 -0.231783
v 0.193957 0.544659 -0.108232
v 0.195857 0.544693 -0.083572
v 0.824228 1.096772 -0.200015
v 0.842348 1.062854 -0.231154
v 0.790797 1.102257 -0.176381
v 0.842820 1.029771 -0.251030
v 0.193957 0.544659 -0.108232
v 0.064496 0.679569 -0.103292
v 0.066395 0.679583 -0.078635
v 0.195857 0.544693 -0.083572
v 0.801220 1.090159 -0.157131
v 0.853242 1.017664 -0.231783
v 0.852775 1.050742 -0.211901
v 0.834654 1.084672 -0.180762
v -0.491844 1.327256 -0.198948
v -0.478389 1.338631 -0.182165
v -0.460677 1.328547 -0.223591
v -0.447226 1.339919 -0.206815
v -0.523834 1.308176 -0.161924
v -0.510390 1.319552 -0.145139
v -0.491844 1.327256 -0.198948
v -0.478389 1.338631 -0.182165
v -0.510390 1.319552 -0.145139
v -0.523834 1.308176 -0.161924
v -0.515624 1.285756 -0.118835
v -0.529067 1.274382 -0.135615
v -0.139663 0.551471 -0.081582
v -0.138078 0.553838 -0.057146
v -0.529067 1.274382 -0.135615
v -0.515624 1.285756 -0.118835
v -0.002805 0.687863 -0.113858
v -0.001240 0.690232 -0.089416
v -0.139663 0.551471 -0.081582
v -0.138078 0.553838 -0.057146
v -0.460677 1.328547 -0.223591
v -0.447226 1.339919 -0.206815
v -0.002805 0.687863 -0.113858
v -0.001240 0.690232 -0.089416
v -0.523834 1.308176 -0.161924
v -0.491844 1.327256 -0.198948
v -0.529067 1.274382 -0.135615
v -0.460677 1.328547 -0.223591
v -0.002805 0.687863 -0.113858
v -0.139663 0.551471 -0.081582
v -0.801489 -0.039111 -0.049327
v -0.811053 -0.025523 -0.031754
v -0.803040 -0.007879 -0.075516
v -0.812600 0.005706 -0.057952
v -0.781797 -0.070338 -0.013361
v -0.791360 -0.056760 0.004213
v -0.801489 -0.039111 -0.049327
v -0.811053 -0.025523 -0.031754
v -0.791360 -0.056760 0.004213
v -0.781797 -0.070338 -0.013361
v -0.756868 -0.060433 0.025775
v -0.747307 -0.074009 0.008205
v -0.021047 0.348611 -0.066589
v -0.021792 0.350573 -0.042010
v -0.747307 -0.074009 0.008205
v -0.756868 -0.060433 0.025775
v -0.151100 0.482507 -0.086906
v -0.151846 0.484450 -0.062322
v -0.021047 0.348611 -0.066589
v -0.021792 0.350573 -0.042010
v -0.803040 -0.007879 -0.075516
v -0.812600 0.005706 -0.057952
v -0.151100 0.482507 -0.086906
v -0.151846 0.484450 -0.062322
v 0.215337 0.446656 -0.175949
v 0.532702 -0.303514 -0.081534
v 0.520110 -0.313413 -0.061490
v 0.500456 -0.306654 -0.102955
v 0.487868 -0.316549 -0.082919
vt 0.043066 0.848015
vt 0.043618 0.850746
vt 0.029492 0.847356
vt 0.030047 0.850087
vt 0.922142 0.130518
vt 0.921721 0.124624
vt 0.958959 0.130516
vt 0.959083 0.113735
vt 0.922467 0.119500
vt 0.959219 0.102974
vt 0.922864 0.124666
vt 0.959029 0.114780
vt 0.922295 0.130745
vt 0.959013 0.125483
vt 0.922142 0.140911
vt 0.958959 0.140841
vt 0.921721 0.146885
vt 0.959083 0.157628
vt 0.922464 0.151980
vt 0.959219 0.168378
vt 0.922864 0.146794
vt 0.959029 0.156569
vt 0.922295 0.140734
vt 0.959013 0.145870
vt 0.995705 0.176767
vt 0.995705 0.162680
vt 0.995705 0.146245
vt 0.995705 0.125114
vt 0.995705 0.108679
vt 0.995705 0.094592
vt 0.995705 0.108679
vt 0.995705 0.125114
vt 0.995705 0.146245
vt 0.995705 0.162680
vt 0.913889 0.134874
vt 0.803446 0.947546
vt 0.808595 0.943804
vt 0.801478 0.953599
vt 0.808595 0.963395
vt 0.820110 0.947546
vt 0.820110 0.959653
vt 0.822078 0.953599
vt 0.803446 0.959653
vt 0.814961 0.963395
vt 0.375032 0.651249
vt 0.365853 0.677825
vt 0.232327 0.651039
vt 0.228766 0.668093
vt 0.226348 0.662663
vt 0.226932 0.655311
vt 0.375032 0.651249
vt 0.365853 0.677825
vt 0.232327 0.651039
vt 0.228766 0.668093
vt 0.226348 0.662663
vt 0.226932 0.655311
vt 0.226932 0.655311
vt 0.226348 0.662663
vt 0.232327 0.651039
vt 0.228766 0.668093
vt 0.365853 0.677825
vt 0.375032 0.651249
vt 0.375032 0.651249
vt 0.365853 0.677825
vt 0.232327 0.651039
vt 0.228766 0.668093
vt 0.226348 0.662663
vt 0.226932 0.655311
vt 0.234122 0.669378
vt 0.234122 0.662330
vt 0.228888 0.669378
vt 0.228888 0.662330
vt 0.374794 0.662330
vt 0.374794 0.669378
vt 0.228888 0.662330
vt 0.228888 0.669378
vt 0.347596 0.662330
vt 0.347596 0.669378
vt 0.374794 0.662330
vt 0.374794 0.669378
vt 0.229669 0.662237
vt 0.229669 0.669285
vt 0.347596 0.662330
vt 0.347596 0.669378
vt 0.226932 0.655311
vt 0.226348 0.662663
vt 0.232327 0.651039
vt 0.228766 0.668093
vt 0.365853 0.677825
vt 0.375032 0.651249
vt 0.043515 0.850274
vt 0.042963 0.847543
vt 0.055004 0.849980
vt 0.054452 0.847250
vt 0.029944 0.849614
vt 0.029389 0.846884
vt 0.043515 0.850274
vt 0.042963 0.847543
vt 0.234122 0.669378
vt 0.234122 0.662330
vt 0.228888 0.669378
vt 0.228888 0.662330
vt 0.374794 0.662330
vt 0.374794 0.669378
vt 0.228888 0.662330
vt 0.228888 0.669378
vt 0.347596 0.662330
vt 0.347596 0.669378
vt 0.374794 0.662330
vt 0.374794 0.669378
vt 0.229669 0.662237
vt 0.229669 0.669285
vt 0.347596 0.662330
vt 0.347596 0.669378
vt 0.226932 0.655311
vt 0.226348 0.662663
vt 0.232327 0.651039
vt 0.228766 0.668093
vt 0.365853 0.677825
vt 0.375032 0.651249
vt 0.375032 0.651249
vt 0.365853 0.677825
vt 0.232327 0.651039
vt 0.228766 0.668093
vt 0.226348 0.662663
vt 0.226932 0.655311
vt 0.041187 0.847046
vt 0.041739 0.849777
vt 0.029698 0.847340
vt 0.030250 0.850070
vt 0.054758 0.847706
vt 0.055313 0.850436
vt 0.041187 0.847046
vt 0.041739 0.849777
vt 0.234122 0.669378
vt 0.234122 0.662330
vt 0.228888 0.669378
vt 0.228888 0.662330
vt 0.374794 0.662330
vt 0.374794 0.669378
vt 0.228888 0.662330
vt 0.228888 0.669378
vt 0.347596 0.662330
vt 0.347596 0.669378
vt 0.374794 0.662330
vt 0.374794 0.669378
vt 0.229669 0.662237
vt 0.229669 0.669285
vt 0.347596 0.662330
vt 0.347596 0.669378
vt 0.226932 0.655311
vt 0.226348 0.662663
vt 0.232327 0.651039
vt 0.228766 0.668093
vt 0.365853 0.677825
vt 0.375032 0.651249
vt 0.040672 0.847194
vt 0.041224 0.849925
vt 0.029183 0.847487
vt 0.029735 0.850217
vt 0.054244 0.847854
vt 0.054798 0.850584
vt 0.040672 0.847194
vt 0.041224 0.849925
vt 0.234122 0.669378
vt 0.234122 0.662330
vt 0.228888 0.669378
vt 0.228888 0.662330
vt 0.374794 0.662330
vt 0.374794 0.669378
vt 0.228888 0.662330
vt 0.228888 0.669378
vt 0.347596 0.662330
vt 0.347596 0.669378
vt 0.374794 0.662330
vt 0.374794 0.669378
vt 0.229669 0.662237
vt 0.229669 0.669285
vt 0.347596 0.662330
vt 0.347596 0.669378
vt 0.814961 0.943804
vt 0.043618 0.850746
vt 0.043066 0.848015
vt 0.055107 0.850453
vt 0.054555 0.847723
vn 0.5718 -0.8191 -0.0453
vn 0.5720 -0.8190 -0.0454
vn -0.6342 0.5429 0.5506
vn -0.2314 0.8165 0.5290
vn 0.2703 0.8083 0.5231
vn 0.6826 0.5060 0.5273
vn 0.8404 0.0293 0.5412
vn 0.6949 -0.4401 0.5687
vn 0.2933 -0.7398 0.6056
vn -0.2347 -0.7393 0.6312
vn -0.6640 -0.4134 0.6230
vn -0.2929 -0.9058 0.3063
vn -0.7953 -0.5261 0.3011
vn -0.8050 0.0835 0.5873
vn -0.9603 0.0565 0.2733
vn -0.7639 0.5983 0.2419
vn -0.2933 0.9304 0.2198
vn 0.3061 0.9284 0.2106
vn 0.7980 0.5636 0.2136
vn 0.9736 -0.0063 0.2282
vn 0.7927 -0.5542 0.2540
vn 0.3229 -0.9025 0.2851
vn -0.1714 -0.5520 0.8160
vn -0.5108 -0.2952 0.8074
vn -0.6263 0.0969 0.7736
vn -0.4917 0.4621 0.7380
vn -0.1703 0.6763 0.7166
vn 0.2260 0.6662 0.7107
vn 0.5513 0.4288 0.7157
vn 0.6804 0.0533 0.7309
vn 0.5673 -0.3204 0.7587
vn 0.2466 -0.5564 0.7935
vn -0.0436 -0.0990 -0.9941
vn -0.0122 0.0632 0.9979
vn -0.4814 -0.3574 0.8003
vn -0.4985 -0.3357 0.7992
vn -0.4983 -0.3359 0.7993
vn 0.0989 0.1341 0.9860
vn 0.5207 0.4844 0.7030
vn 0.5375 0.4644 0.7038
vn 0.5374 0.4646 0.7038
vn 0.3859 -0.5815 -0.7162
vn 0.3860 -0.5814 -0.7162
vn 0.4106 -0.5625 -0.7176
vn -0.0093 -0.1588 -0.9873
vn 0.0047 0.1545 0.9880
vn -0.4056 0.5664 0.7174
vn -0.3856 0.5817 0.7162
vn -0.3858 0.5815 0.7163
vn 0.8618 -0.3481 0.3691
vn 0.8617 -0.3481 0.3691
vn 0.8794 0.4755 0.0228
vn 0.6789 0.3929 0.6202
vn -0.7070 0.7072 -0.0006
vn -0.7071 0.7071 -0.0011
vn -0.6491 -0.4361 -0.6232
vn -0.8290 -0.5589 -0.0226
vn 0.4984 0.3360 -0.7992
vn 0.4982 0.3361 -0.7993
vn 0.4771 0.3628 -0.8005
vn 0.0169 -0.0678 -0.9976
vn 0.9090 0.2241 -0.3513
vn 0.9091 0.2240 -0.3513
vn 0.8320 0.5441 -0.1086
vn 0.8321 0.5439 -0.1085
vn 0.3792 0.8620 0.3364
vn 0.3793 0.8620 0.3364
vn -0.4998 0.8653 0.0380
vn -0.3294 0.7088 0.6238
vn -0.7193 -0.6924 0.0564
vn -0.7193 -0.6924 0.0558
vn 0.3713 -0.6821 -0.6301
vn 0.5770 -0.8156 -0.0433
vn -0.4646 0.4513 -0.7619
vn -0.4647 0.4511 -0.7619
vn -0.4888 0.4305 -0.7587
vn -0.0779 -0.0383 -0.9962
vn 0.0825 0.0427 0.9957
vn 0.4840 -0.4347 0.7594
vn 0.4643 -0.4514 0.7620
vn 0.4645 -0.4512 0.7620
vn -0.3123 0.8837 -0.3486
vn -0.5804 0.8100 -0.0841
vn -0.5802 0.8101 -0.0840
vn -0.8256 0.4206 0.3762
vn -0.8255 0.4207 0.3762
vn -0.8790 -0.4658 0.1021
vn -0.6503 -0.2758 0.7079
vn 0.7084 -0.7054 0.0230
vn 0.7084 -0.7054 0.0224
vn 0.6207 0.3211 -0.7153
vn 0.8286 0.5496 -0.1063
vn -0.5374 -0.4647 -0.7038
vn -0.5372 -0.4648 -0.7038
vn -0.5164 -0.4894 -0.7027
vn -0.1035 -0.1295 -0.9862
vn -0.9173 -0.2816 -0.2815
vn -0.8323 -0.5538 -0.0251
vn -0.8324 -0.5536 -0.0250
vn -0.3618 -0.8226 0.4387
vn 0.5076 -0.8575 0.0839
vn 0.4020 -0.6057 0.6867
vn 0.7194 0.6938 -0.0330
vn 0.7194 0.6938 -0.0336
vn -0.4446 0.5751 -0.6867
vn -0.5851 0.8068 -0.0815
vn 0.2760 -0.9193 -0.2806
vn 0.2759 -0.9193 -0.2806
s off
f 1/1/1 2/2/1 3/3/1
f 4/4/2 3/3/2 2/2/2
f 5/5/3 6/6/3 7/7/3
f 8/8/3 7/7/3 6/6/3
f 6/6/4 9/9/4 8/8/4
f 10/10/4 8/8/4 9/9/4
f 9/9/5 11/11/5 10/10/5
f 12/12/5 10/10/5 11/11/5
f 11/11/6 13/13/6 12/12/6
f 14/14/6 12/12/6 13/13/6
f 13/13/7 15/15/7 14/14/7
f 16/16/7 14/14/7 15/15/7
f 15/15/8 17/17/8 16/16/8
f 18/18/8 16/16/8 17/17/8
f 17/17/9 19/19/9 18/18/9
f 20/20/9 18/18/9 19/19/9
f 19/19/10 21/21/10 20/20/10
f 22/22/10 20/20/10 21/21/10
f 21/21/11 23/23/11 22/22/11
f 24/24/11 22/22/11 23/23/11
f 20/20/12 22/22/12 25/25/12
f 26/26/12 25/25/12 22/22/12
f 22/22/13 24/24/13 26/26/13
f 27/27/13 26/26/13 24/24/13
f 23/23/14 5/5/14 24/24/14
f 7/7/14 24/24/14 5/5/14
f 24/24/15 7/7/15 27/27/15
f 28/28/15 27/27/15 7/7/15
f 7/7/16 8/8/16 28/28/16
f 29/29/16 28/28/16 8/8/16
f 8/8/17 10/10/17 29/29/17
f 30/30/17 29/29/17 10/10/17
f 10/10/18 12/12/18 30/30/18
f 31/31/18 30/30/18 12/12/18
f 12/12/19 14/14/19 31/31/19
f 32/32/19 31/31/19 14/14/19
f 14/14/20 16/16/20 32/32/20
f 33/33/20 32/32/20 16/16/20
f 16/16/21 18/18/21 33/33/21
f 34/34/21 33/33/21 18/18/21
f 18/18/22 20/20/22 34/34/22
f 25/25/22 34/34/22 20/20/22
f 35/35/23 21/21/23 19/19/23
f 35/35/24 23/23/24 21/21/24
f 35/35/25 5/5/25 23/23/25
f 35/35/26 6/6/26 5/5/26
f 35/35/27 9/9/27 6/6/27
f 35/35/28 11/11/28 9/9/28
f 35/35/29 13/13/29 11/11/29
f 35/35/30 15/15/30 13/13/30
f 35/35/31 17/17/31 15/15/31
f 35/35/32 19/19/32 17/17/32
f 36/36/33 37/37/33 38/38/33
f 37/37/33 39/39/33 38/38/33
f 40/40/33 39/39/33 37/37/33
f 41/41/33 39/39/33 40/40/33
f 42/42/33 41/41/33 40/40/33
f 38/38/33 39/39/33 43/43/33
f 44/44/33 39/39/33 41/41/33
f 45/45/34 46/46/34 47/47/34
f 46/46/35 48/48/35 47/47/35
f 48/48/36 49/49/36 47/47/36
f 49/49/37 50/50/37 47/47/37
f 51/51/38 52/52/38 53/53/38
f 52/52/39 54/54/39 53/53/39
f 54/54/40 55/55/40 53/53/40
f 55/55/41 56/56/41 53/53/41
f 57/57/42 58/58/42 59/59/42
f 58/58/43 60/60/43 59/59/43
f 60/60/44 61/61/44 59/59/44
f 61/61/45 62/62/45 59/59/45
f 63/63/46 64/64/46 65/65/46
f 64/64/47 66/66/47 65/65/47
f 66/66/48 67/67/48 65/65/48
f 67/67/49 68/68/49 65/65/49
f 69/69/50 70/70/50 71/71/50
f 72/72/51 71/71/51 70/70/51
f 73/73/52 74/74/52 75/75/52
f 76/76/53 75/75/53 74/74/53
f 77/77/54 78/78/54 79/79/54
f 80/80/55 79/79/55 78/78/55
f 81/81/56 82/82/56 83/83/56
f 82/82/57 84/84/57 83/83/57
f 85/85/58 86/86/58 87/87/58
f 86/86/59 88/88/59 87/87/59
f 88/88/60 89/89/60 87/87/60
f 89/89/61 90/90/61 87/87/61
f 91/91/62 92/92/62 93/93/62
f 94/94/63 93/93/63 92/92/63
f 95/95/64 96/96/64 97/97/64
f 98/98/65 97/97/65 96/96/65
f 99/99/66 100/100/66 101/101/66
f 102/102/67 101/101/67 100/100/67
f 103/103/68 104/104/68 105/105/68
f 106/106/69 105/105/69 104/104/69
f 107/107/70 108/108/70 109/109/70
f 110/110/71 109/109/71 108/108/71
f 111/111/72 112/112/72 113/113/72
f 112/112/73 114/114/73 113/113/73
f 115/115/74 116/116/74 117/117/74
f 116/116/75 118/118/75 117/117/75
f 118/118/76 119/119/76 117/117/76
f 119/119/77 120/120/77 117/117/77
f 121/121/78 122/122/78 123/123/78
f 122/122/79 124/124/79 123/123/79
f 124/124/80 125/125/80 123/123/80
f 125/125/81 126/126/81 123/123/81
f 127/127/82 128/128/82 129/129/82
f 130/130/82 129/129/82 128/128/82
f 131/131/83 132/132/83 133/133/83
f 134/134/84 133/133/84 132/132/84
f 135/135/85 136/136/85 137/137/85
f 138/138/86 137/137/86 136/136/86
f 139/139/87 140/140/87 141/141/87
f 142/142/88 141/141/88 140/140/88
f 143/143/89 144/144/89 145/145/89
f 146/146/90 145/145/90 144/144/90
f 147/147/91 148/148/91 149/149/91
f 148/148/92 150/150/92 149/149/92
f 151/151/93 152/152/93 153/153/93
f 152/152/94 154/154/94 153/153/94
f 154/154/95 155/155/95 153/153/95
f 155/155/96 156/156/96 153/153/96
f 157/157/97 158/158/97 159/159/97
f 160/160/97 159/159/97 158/158/97
f 161/161/98 162/162/98 163/163/98
f 164/164/99 163/163/99 162/162/99
f 165/165/100 166/166/100 167/167/100
f 168/168/100 167/167/100 166/166/100
f 169/169/101 170/170/101 171/171/101
f 172/172/102 171/171/102 170/170/102
f 173/173/103 174/174/103 175/175/103
f 176/176/104 175/175/104 174/174/104
f 177/177/105 178/178/105 179/179/105
f 178/178/106 180/180/106 179/179/106
f 181/181/33 40/40/33 37/37/33
f 182/182/107 183/183/107 184/184/107
f 185/185/108 184/184/108 183/183/108
